<svg width="18" height="18" viewBox="0 0 18 18" fill="none" xmlns="http://www.w3.org/2000/svg">
<path d="M6.75 14.2506C3 15.3756 3 12.3756 1.5 12.0006M12 16.5006V13.5981C12.0281 13.2404 11.9798 12.8809 11.8583 12.5434C11.7367 12.2059 11.5447 11.8981 11.295 11.6406C13.65 11.3781 16.125 10.4856 16.125 6.39056C16.1248 5.34343 15.722 4.33646 15 3.57806C15.3419 2.66194 15.3177 1.64933 14.9325 0.750564C14.9325 0.750564 14.0475 0.488064 12 1.86056C10.281 1.39468 8.46899 1.39468 6.75 1.86056C4.7025 0.488064 3.8175 0.750564 3.8175 0.750564C3.43228 1.64933 3.40811 2.66194 3.75 3.57806C3.0226 4.34209 2.61939 5.35816 2.625 6.41306C2.625 10.4781 5.1 11.3706 7.455 11.6631C7.20825 11.918 7.01795 12.2221 6.89648 12.5555C6.77502 12.8889 6.72511 13.2441 6.75 13.5981V16.5006" stroke="#030303" stroke-linecap="round" stroke-linejoin="round"/>
</svg>
