<svg width="24" height="24" viewBox="0 0 24 24" fill="none" xmlns="http://www.w3.org/2000/svg">
<path fill-rule="evenodd" clip-rule="evenodd" d="M12.0001 3.42857C10.1065 3.42857 8.57148 4.96359 8.57148 6.85714V8.57143H15.4286V6.85714C15.4286 4.96359 13.8936 3.42857 12.0001 3.42857ZM5.14291 6.85714V8.57143C3.72278 8.57146 2.57153 9.72271 2.57153 11.1429V21.4286C2.57153 22.8487 3.7228 24 5.14296 24H18.8572C20.2775 24 21.4286 22.8487 21.4286 21.4286V11.1429C21.4286 9.72269 20.2775 8.57143 18.8572 8.57143V6.85714C18.8572 3.07005 15.7871 0 12.0001 0C8.21296 0 5.14291 3.07005 5.14291 6.85714ZM12.0001 18.4286C13.1836 18.4286 14.143 17.4693 14.143 16.2857C14.143 15.1022 13.1836 14.1429 12.0001 14.1429C10.8166 14.1429 9.85725 15.1022 9.85725 16.2857C9.85725 17.4693 10.8166 18.4286 12.0001 18.4286Z" fill="black"/>
</svg>
